<svg width="143" height="32" viewBox="0 0 143 32" fill="none" xmlns="http://www.w3.org/2000/svg">
<path d="M33.8184 14.2114L33.0693 14.3638C32.9762 14.3638 32.9064 14.3511 32.8599 14.3257C32.8133 14.3003 32.79 14.2389 32.79 14.1416C32.79 13.9893 32.9805 13.748 33.3613 13.418C33.7422 13.0837 34.2775 12.7853 34.9673 12.5229C35.6571 12.2563 36.2664 12.123 36.7954 12.123C37.3286 12.123 37.6925 12.2331 37.8872 12.4531C38.0819 12.6689 38.1792 13.0244 38.1792 13.5195C38.1792 13.583 38.1707 13.6909 38.1538 13.8433C39.6899 12.6076 41.1012 11.9897 42.3877 11.9897C42.9928 11.9897 43.452 12.1273 43.7651 12.4023C44.0783 12.6774 44.2349 13.0667 44.2349 13.5703V13.6274C45.6356 12.5356 46.8882 11.9897 47.9927 11.9897C48.619 11.9897 49.112 12.1379 49.4717 12.4341C49.8314 12.7261 50.0112 13.1217 50.0112 13.6211C50.0112 14.1162 49.9012 14.6854 49.6812 15.3286C49.4653 15.9718 49.2284 16.5474 48.9702 17.0552C48.2762 18.422 47.9292 19.3276 47.9292 19.772C47.9292 20.0555 48.0138 20.2798 48.1831 20.4448C48.3524 20.6056 48.5301 20.703 48.7163 20.7368C48.9025 20.7664 49.0231 20.7897 49.0781 20.8066C49.1374 20.8193 49.203 20.8405 49.2749 20.8701C49.4103 20.9209 49.478 21.0076 49.478 21.1304C49.478 21.4308 49.1501 21.6932 48.4941 21.9175C47.8424 22.1418 47.0384 22.2539 46.082 22.2539C44.8125 22.2539 44.1777 21.7821 44.1777 20.8384C44.1777 20.4194 44.2835 19.8968 44.4951 19.2705C44.7067 18.64 44.9395 18.056 45.1934 17.5186C45.8662 16.084 46.2026 15.1255 46.2026 14.6431C46.2026 14.4653 46.1497 14.3215 46.0439 14.2114C45.9424 14.1014 45.7816 14.0464 45.5615 14.0464C45.1764 14.0464 44.6877 14.1987 44.0952 14.5034C43.9302 15.1466 43.6107 16.0332 43.1367 17.1631C42.6628 18.2887 42.3242 19.188 42.1211 19.8608C41.918 20.5295 41.8037 21.105 41.7783 21.5874C41.7699 21.7271 41.7297 21.8434 41.6577 21.9365C41.59 22.0296 41.5011 22.0762 41.3911 22.0762L38.814 22.1143C38.3612 22.1143 38.084 22.0381 37.9824 21.8857C37.9359 21.8138 37.9126 21.708 37.9126 21.5684C37.9126 21.4287 37.9613 21.1558 38.0586 20.7495C38.1559 20.3433 38.3442 19.7783 38.6235 19.0547C38.9071 18.3268 39.1758 17.6942 39.4297 17.1567C40.0645 15.7983 40.3818 14.952 40.3818 14.6177C40.3818 14.2326 40.1491 14.04 39.6836 14.04C39.2181 14.04 38.6595 14.222 38.0078 14.5859C37.8639 15.1318 37.5952 15.8851 37.2017 16.8457C36.8123 17.8021 36.4717 18.6738 36.1797 19.4609C35.8919 20.248 35.748 20.8384 35.748 21.2319L35.7671 21.6509C35.7671 21.7821 35.6951 21.8857 35.5513 21.9619C35.4074 22.0381 35.2572 22.0762 35.1006 22.0762L32.7456 22.1143C32.2759 22.1143 31.9902 22.0339 31.8887 21.873C31.8421 21.7926 31.8188 21.6699 31.8188 21.5049C31.8188 21.3356 31.8548 21.0944 31.9268 20.7812C31.9987 20.4681 32.2272 19.8566 32.6123 18.9468C33.0016 18.0327 33.355 17.1842 33.6724 16.4014C33.994 15.6185 34.1548 15.1001 34.1548 14.8462C34.1548 14.5923 34.1273 14.423 34.0723 14.3384C34.0173 14.2537 33.9326 14.2114 33.8184 14.2114ZM57.0635 13.0498C57.0635 13.5026 56.8117 13.8983 56.3081 14.2368C55.8088 14.5711 55.2798 14.7383 54.7212 14.7383C54.1668 14.7383 53.7352 14.6261 53.4263 14.4019C53.1174 14.1733 52.9629 13.8962 52.9629 13.5703C52.9629 13.2445 53.0814 12.9482 53.3184 12.6816C53.5553 12.415 53.8621 12.2056 54.2388 12.0532C54.6196 11.9009 55.0322 11.8247 55.4766 11.8247C55.9209 11.8247 56.2954 11.9432 56.6001 12.1802C56.909 12.4129 57.0635 12.7028 57.0635 13.0498ZM55.2798 20.9272C55.5675 20.9272 55.9569 20.8595 56.4478 20.7241C56.9429 20.5845 57.3026 20.4618 57.5269 20.356C57.7511 20.2459 57.9077 20.1909 57.9966 20.1909C58.1743 20.1909 58.2632 20.2798 58.2632 20.4575C58.2632 20.5379 58.1976 20.6289 58.0664 20.7305C57.6348 21.0521 56.8582 21.3864 55.7368 21.7334C54.6154 22.0804 53.6146 22.2539 52.7344 22.2539C52.1885 22.2539 51.7314 22.1672 51.3633 21.9937C50.9951 21.8201 50.811 21.5557 50.811 21.2002C50.811 20.9844 50.9951 20.4554 51.3633 19.6133C52.0573 18.0179 52.4043 16.8161 52.4043 16.0078L52.3979 15.7666C52.3979 15.555 52.6032 15.4492 53.0137 15.4492L56.1494 15.3794C56.2594 15.3794 56.342 15.4132 56.397 15.481C56.452 15.5444 56.4795 15.6164 56.4795 15.6968C56.4795 15.9888 56.3462 16.4712 56.0796 17.144C55.813 17.8127 55.5464 18.4707 55.2798 19.1182C55.0132 19.7656 54.8799 20.229 54.8799 20.5083C54.8799 20.7876 55.0132 20.9272 55.2798 20.9272ZM65.0615 15.4492L67.5435 15.3794C67.6535 15.3794 67.736 15.4132 67.791 15.481C67.846 15.5444 67.8735 15.6164 67.8735 15.6968C67.8735 16.0015 67.772 16.2977 67.5688 16.5854C67.37 16.869 67.1139 17.1187 66.8008 17.3345C66.4876 17.5503 66.1216 17.7513 65.7026 17.9375C64.9494 18.2718 64.1326 18.5299 63.2524 18.7119C63.8534 18.623 64.3781 18.5786 64.8267 18.5786C65.9015 18.5786 66.439 18.915 66.439 19.5879C66.439 19.6937 66.4115 19.8524 66.3564 20.064C66.3014 20.2713 66.2739 20.4385 66.2739 20.5654C66.2739 20.8363 66.4093 20.9717 66.6802 20.9717C66.8791 20.9717 67.1647 20.8997 67.5371 20.7559C67.9137 20.6077 68.2036 20.4766 68.4067 20.3623C68.6099 20.248 68.7453 20.1909 68.813 20.1909C68.8849 20.1909 68.9484 20.2142 69.0034 20.2607C69.0584 20.3031 69.0859 20.3813 69.0859 20.4956C69.0859 20.6056 68.995 20.7262 68.813 20.8574C68.1951 21.2933 67.4546 21.6361 66.5913 21.8857C65.728 22.1312 64.9536 22.2539 64.2681 22.2539C63.5868 22.2539 63.1255 22.1841 62.8843 22.0444C62.6431 21.909 62.5225 21.6826 62.5225 21.3652C62.5225 21.2044 62.5669 20.959 62.6558 20.6289C62.7446 20.2946 62.7891 20.0301 62.7891 19.8354C62.7891 19.2726 62.4526 18.9616 61.7798 18.9023C61.272 20.2904 61.0011 21.2637 60.9673 21.8223C60.9588 21.9788 60.8467 22.0571 60.6309 22.0571L57.3618 22.127C57.3153 22.127 57.2624 22.0973 57.2031 22.0381C57.1481 21.9831 57.1206 21.9132 57.1206 21.8286C57.1206 21.744 57.256 21.3187 57.5269 20.5527C57.8019 19.7868 58.1024 18.9552 58.4282 18.0581C58.7583 17.161 59.0588 16.2279 59.3296 15.2588C59.6047 14.2897 59.7422 13.5682 59.7422 13.0942L59.7358 12.9165C59.7358 12.7049 59.9411 12.5991 60.3516 12.5991L63.2588 12.5801C63.3561 12.5801 63.4344 12.6118 63.4937 12.6753C63.5571 12.7345 63.5889 12.8001 63.5889 12.8721C63.5889 13.236 63.4069 14.0083 63.043 15.189C62.679 16.3696 62.332 17.4064 62.002 18.2993C62.7637 18.1004 63.3625 17.7873 63.7983 17.3599C64.2342 16.9325 64.4521 16.4818 64.4521 16.0078L64.4458 15.7666C64.4458 15.555 64.651 15.4492 65.0615 15.4492ZM78.6201 20.1909C78.7682 20.1909 78.8423 20.2607 78.8423 20.4004C78.8423 20.5358 78.7407 20.6628 78.5376 20.7812C78.3387 20.8955 78.0911 21.0203 77.7949 21.1558C77.4987 21.2869 77.0903 21.4435 76.5698 21.6255C75.3722 22.0444 74.0202 22.2539 72.5137 22.2539C69.653 22.2539 68.2227 21.3737 68.2227 19.6133C68.2227 18.7542 68.4935 17.9925 69.0352 17.3281C69.5811 16.6595 70.311 16.1496 71.2251 15.7983C72.1392 15.4429 73.1357 15.2651 74.2148 15.2651C75.2939 15.2651 76.0832 15.4323 76.5825 15.7666C77.0861 16.1009 77.3379 16.5601 77.3379 17.144C77.3379 17.745 77.0967 18.2358 76.6143 18.6167C76.1361 18.9976 75.4992 19.2811 74.7036 19.4673C73.9038 19.6535 72.9876 19.7847 71.9551 19.8608C72.0228 20.5168 72.4925 20.9251 73.3643 21.0859C73.5885 21.124 73.8255 21.1431 74.0752 21.1431C75.0654 21.1431 76.4937 20.8447 78.3599 20.248C78.4741 20.21 78.5609 20.1909 78.6201 20.1909ZM71.9614 19.1626C72.6978 18.9595 73.2796 18.6484 73.707 18.2295C74.1344 17.8105 74.3481 17.3049 74.3481 16.7124C74.3481 16.5558 74.2974 16.431 74.1958 16.3379C74.0942 16.2448 73.9398 16.1982 73.7324 16.1982C73.5293 16.1982 73.3156 16.2871 73.0913 16.4648C72.8713 16.6426 72.6851 16.8753 72.5327 17.1631C72.2111 17.7598 72.0207 18.4263 71.9614 19.1626ZM83.2666 21.5049C83.1608 21.4541 83.1079 21.3483 83.1079 21.1875C83.1079 21.0267 83.237 20.6839 83.4951 20.1592C83.7533 19.6302 83.9564 19.3657 84.1045 19.3657C84.1891 19.3657 84.3203 19.425 84.498 19.5435C84.6758 19.6577 84.881 19.7974 85.1138 19.9624C85.3507 20.1274 85.6068 20.2904 85.8818 20.4512C86.5505 20.849 87.2 21.0479 87.8306 21.0479C88.1437 21.0479 88.368 20.9844 88.5034 20.8574C88.6388 20.7305 88.7065 20.6035 88.7065 20.4766C88.7065 20.3454 88.6346 20.1994 88.4907 20.0386C88.3468 19.8735 88.1585 19.7043 87.9258 19.5308C87.6973 19.3573 87.4434 19.1753 87.1641 18.9849C86.8848 18.7902 86.6055 18.585 86.3262 18.3691C86.0469 18.1533 85.793 17.9375 85.5645 17.7217C85.0439 17.2308 84.7837 16.7526 84.7837 16.2871C84.7837 15.957 84.8704 15.6587 85.0439 15.3921C85.2217 15.1255 85.446 14.9097 85.7168 14.7446C85.9919 14.5796 86.3029 14.4421 86.6499 14.332C87.272 14.1289 87.9131 14.0273 88.5732 14.0273C88.7552 14.0273 88.8906 14.0549 88.9795 14.1099C89.0684 14.1649 89.1128 14.2284 89.1128 14.3003C89.1128 14.3722 89.0811 14.4823 89.0176 14.6304C88.9541 14.7743 88.9224 14.9033 88.9224 15.0176C88.9224 15.1318 88.9985 15.2778 89.1509 15.4556C89.3075 15.6333 89.5085 15.8153 89.7539 16.0015C89.9993 16.1877 90.2702 16.3866 90.5664 16.5981C90.8626 16.8097 91.1589 17.034 91.4551 17.271C91.7513 17.508 92.0221 17.7492 92.2676 17.9946C92.8219 18.549 93.0991 19.0864 93.0991 19.6069C93.0991 20.1232 92.9637 20.5549 92.6929 20.9019C92.4263 21.2489 92.0539 21.5176 91.5757 21.708C91.0975 21.8984 90.5728 22.036 90.0015 22.1206C89.4302 22.2095 88.734 22.2539 87.9131 22.2539C87.0921 22.2539 86.1865 22.1693 85.1963 22C84.2103 21.8265 83.5671 21.6615 83.2666 21.5049ZM93.7783 15.2905C93.224 14.6304 92.5363 14.1395 91.7153 13.8179C90.8986 13.492 90.0459 13.3291 89.1572 13.3291C87.528 13.3291 85.958 13.6359 84.4473 14.2495C84.2441 14.3299 84.1003 14.3701 84.0156 14.3701C83.8464 14.3701 83.7617 14.2897 83.7617 14.1289C83.7617 13.9977 83.8739 13.8411 84.0981 13.6592C84.3267 13.4772 84.6525 13.291 85.0757 13.1006C85.5031 12.9059 85.9855 12.7261 86.5229 12.561C87.7502 12.1844 89.0662 11.9961 90.4712 11.9961C92.549 11.9961 94.1169 12.2881 95.1748 12.8721C95.234 12.9059 95.2594 13.0075 95.251 13.1768C95.2467 13.3418 95.1706 13.5978 95.0225 13.9448C94.8743 14.2918 94.6945 14.6134 94.4829 14.9097C94.2756 15.2059 94.0978 15.354 93.9497 15.354C93.9116 15.3117 93.8545 15.2905 93.7783 15.2905ZM96.0317 21.5747C95.2362 21.0965 94.8384 20.3708 94.8384 19.3975C94.8384 18.8896 94.9421 18.4136 95.1494 17.9692C95.361 17.5207 95.6488 17.1335 96.0127 16.8076C96.3809 16.4818 96.8083 16.2025 97.2949 15.9697C98.2682 15.5 99.3833 15.2651 100.64 15.2651C103.111 15.2651 104.447 16.048 104.646 17.6138C104.942 17.7111 105.246 17.7598 105.56 17.7598C105.877 17.7598 106.141 17.7365 106.353 17.6899C106.565 17.6434 106.764 17.5736 106.95 17.4805C107.14 17.3874 107.276 17.3408 107.356 17.3408C107.517 17.3408 107.597 17.4191 107.597 17.5757C107.597 17.7323 107.472 17.8952 107.223 18.0645C106.753 18.3861 106.131 18.5469 105.356 18.5469C105.064 18.5469 104.827 18.5321 104.646 18.5024C104.51 19.5688 103.96 20.4554 102.995 21.1621C102.534 21.5007 101.967 21.7673 101.294 21.9619C100.625 22.1566 99.9313 22.2539 99.2119 22.2539C98.4967 22.2539 97.8831 22.1968 97.3711 22.0825C96.859 21.9725 96.4126 21.8032 96.0317 21.5747ZM98.3359 19.9561C98.3359 20.7389 98.6216 21.1304 99.1929 21.1304C99.5568 21.1304 99.8953 20.9315 100.208 20.5337C100.526 20.1359 100.771 19.6429 100.945 19.0547C101.123 18.4665 101.211 17.8677 101.211 17.2583C101.211 16.6447 100.998 16.3379 100.57 16.3379C100.198 16.3379 99.8361 16.5135 99.4849 16.8647C99.1379 17.216 98.8586 17.673 98.647 18.2358C98.4396 18.7944 98.3359 19.3678 98.3359 19.9561ZM107.851 15.4683L110.72 15.3984C110.83 15.3984 110.913 15.4323 110.968 15.5C111.023 15.5635 111.05 15.6608 111.05 15.792C111.05 15.9189 110.932 16.2533 110.695 16.7949C110.462 17.3324 110.227 17.9058 109.99 18.5151C109.753 19.1203 109.635 19.5625 109.635 19.8418C109.635 20.3665 109.914 20.6289 110.473 20.6289C110.739 20.6289 111.031 20.5951 111.349 20.5273C111.45 20.1676 111.619 19.6916 111.856 19.0991C112.457 17.6138 112.819 16.4839 112.942 15.7095C112.963 15.5529 113.075 15.4746 113.278 15.4746C113.892 15.4746 114.537 15.4619 115.214 15.4365C115.891 15.4111 116.281 15.3984 116.382 15.3984C116.488 15.3984 116.569 15.4281 116.624 15.4873C116.683 15.5423 116.712 15.5952 116.712 15.646C116.712 15.8491 116.581 16.2786 116.319 16.9346C116.056 17.5905 115.794 18.2697 115.532 18.9722C115.269 19.6704 115.138 20.1803 115.138 20.502C115.138 20.8236 115.28 20.9844 115.563 20.9844C115.851 20.9844 116.247 20.9082 116.75 20.7559C117.258 20.5993 117.612 20.466 117.811 20.356C118.014 20.2459 118.145 20.1909 118.204 20.1909C118.365 20.1909 118.445 20.2671 118.445 20.4194C118.445 20.5718 118.331 20.7178 118.103 20.8574C117.878 20.9928 117.605 21.1325 117.284 21.2764C116.966 21.416 116.583 21.5641 116.135 21.7207C115.102 22.0762 114.051 22.2539 112.98 22.2539C111.909 22.2539 111.306 21.9661 111.171 21.3906C110.76 21.5599 110.424 21.6932 110.162 21.7905C109.899 21.8836 109.535 21.9831 109.07 22.0889C108.604 22.1989 108.177 22.2539 107.788 22.2539C106.543 22.2539 105.921 21.7461 105.921 20.7305C105.921 20.3792 105.989 19.9539 106.125 19.4546C106.26 18.951 106.41 18.4961 106.575 18.0898C107.011 17.0107 107.229 16.3421 107.229 16.084C107.229 15.8216 107.267 15.6545 107.343 15.5825C107.419 15.5063 107.589 15.4683 107.851 15.4683ZM130.144 20.1909C130.301 20.1909 130.379 20.265 130.379 20.4131C130.379 20.557 130.301 20.6839 130.144 20.7939C129.992 20.904 129.765 21.0309 129.465 21.1748C129.164 21.3145 128.79 21.4689 128.341 21.6382C127.897 21.8075 127.381 21.9513 126.792 22.0698C126.208 22.1925 125.65 22.2539 125.117 22.2539C123.86 22.2539 123.231 21.9661 123.231 21.3906C123.231 21.0182 123.443 20.3538 123.866 19.3975C124.294 18.4368 124.507 17.7894 124.507 17.4551C124.507 17.0785 124.213 16.8901 123.625 16.8901C123.358 16.8901 123.056 16.924 122.717 16.9917C122.556 17.5588 122.269 18.4601 121.854 19.6958C121.444 20.9315 121.211 21.634 121.156 21.8032C121.105 21.9725 120.993 22.0571 120.819 22.0571L117.55 22.127C117.504 22.127 117.451 22.0973 117.392 22.0381C117.337 21.9831 117.309 21.9175 117.309 21.8413C117.309 21.7609 117.398 21.4837 117.576 21.0098C117.758 20.5316 117.957 20.0195 118.172 19.4736C118.392 18.9235 118.591 18.3205 118.769 17.6646C118.951 17.0044 119.042 16.4585 119.042 16.0269L119.036 15.7856C119.036 15.5741 119.241 15.4683 119.651 15.4683L122.66 15.3984C122.77 15.3984 122.853 15.4323 122.908 15.5C122.963 15.5635 122.99 15.6439 122.99 15.7412C122.99 15.8343 122.967 15.9867 122.92 16.1982C124.41 15.5762 125.633 15.2651 126.589 15.2651C126.996 15.2651 127.366 15.3773 127.7 15.6016C128.073 15.8512 128.259 16.23 128.259 16.7378C128.259 17.2583 128.062 17.9396 127.668 18.7817C127.275 19.6239 127.078 20.1444 127.078 20.3433C127.078 20.7368 127.235 20.9336 127.548 20.9336C127.747 20.9336 128.085 20.8595 128.563 20.7114C129.046 20.5591 129.401 20.4342 129.63 20.3369C129.863 20.2396 130.034 20.1909 130.144 20.1909ZM142.008 20.1909C142.198 20.1909 142.293 20.2777 142.293 20.4512C142.293 20.5739 142.205 20.7008 142.027 20.832C141.553 21.179 140.844 21.5028 139.9 21.8032C138.961 22.1037 138.14 22.2539 137.438 22.2539C136.735 22.2539 136.217 22.1799 135.882 22.0317C135.552 21.8879 135.324 21.6318 135.197 21.2637C134.951 21.5133 134.598 21.7419 134.137 21.9492C133.675 22.1523 133.187 22.2539 132.67 22.2539C132.158 22.2539 131.739 22.2074 131.414 22.1143C131.088 22.0254 130.792 21.8879 130.525 21.7017C130.258 21.5155 130.047 21.2616 129.89 20.9399C129.738 20.6141 129.662 20.2354 129.662 19.8037C129.662 19.3721 129.727 18.9425 129.858 18.5151C129.99 18.0877 130.191 17.6794 130.461 17.29C130.736 16.8965 131.064 16.5495 131.445 16.249C131.826 15.9486 132.287 15.7095 132.829 15.5317C133.375 15.354 133.961 15.2651 134.587 15.2651C135.616 15.2651 136.471 15.5212 137.152 16.0332C137.389 14.5267 137.507 13.5428 137.507 13.0815L137.501 12.8975C137.501 12.6859 137.706 12.5801 138.117 12.5801L140.96 12.7134C141.062 12.7134 141.142 12.7451 141.202 12.8086C141.261 12.8678 141.291 12.9355 141.291 13.0117C141.291 13.6719 140.941 15.026 140.243 17.0742C139.545 19.1182 139.196 20.2396 139.196 20.4385C139.196 20.6374 139.223 20.7791 139.278 20.8638C139.338 20.9484 139.458 20.9907 139.64 20.9907C139.822 20.9907 140.135 20.9146 140.58 20.7622C141.024 20.6099 141.358 20.4766 141.583 20.3623C141.807 20.248 141.949 20.1909 142.008 20.1909ZM134.143 20.6416C134.939 20.6416 135.603 20.0322 136.136 18.8135C136.441 18.2295 136.593 17.7132 136.593 17.2646C136.593 17.0192 136.534 16.8309 136.416 16.6997C136.301 16.5685 136.071 16.5029 135.724 16.5029C135.381 16.5029 135.004 16.6637 134.594 16.9854C134.183 17.307 133.851 17.7111 133.597 18.1978C133.347 18.6802 133.223 19.1139 133.223 19.499C133.223 19.8799 133.307 20.1655 133.477 20.356C133.646 20.5464 133.868 20.6416 134.143 20.6416Z" fill="white"/>
<path d="M27.6318 8.08871L23.0363 26.5652L9.33294 13.3471L27.6318 8.08871Z" fill="black"/>
<path d="M20.3105 11.4037L26.551 10.4218L24.2811 16.3172L20.3105 11.4037Z" fill="#03144E"/>
<path d="M13.5635 4.3102L24.5174 17.7101L7.43584 20.4965L13.5635 4.3102Z" stroke="#00B3FF"/>
<path d="M5.84613 13.1312L22.4803 8.3512L18.3029 25.1469L5.84613 13.1312Z" stroke="#FFFCFC"/>
</svg>
